<svg width="301" height="74" viewBox="0 0 301 74" fill="none" xmlns="http://www.w3.org/2000/svg">
<mask id="path-1-outside-1_79_17" maskUnits="userSpaceOnUse" x="0" y="14" width="299" height="47" fill="black">
<rect fill="white" y="14" width="299" height="47"/>
<path d="M30.9062 44.5625L42.4062 16.625H59.6562V17.7812H58.2812C57.0312 17.7812 56.0312 18 55.2812 18.4375C54.7604 18.7292 54.3438 19.2188 54.0312 19.9062C53.8021 20.4062 53.6875 21.7083 53.6875 23.8125V51.75C53.6875 53.9167 53.8021 55.2708 54.0312 55.8125C54.2604 56.3542 54.7292 56.8333 55.4375 57.25C56.1458 57.6458 57.0938 57.8438 58.2812 57.8438H59.6562V59H37.5312V57.8438H38.9062C40.1562 57.8438 41.1562 57.625 41.9062 57.1875C42.4271 56.8958 42.8438 56.3958 43.1562 55.6875C43.3854 55.1875 43.5 53.875 43.5 51.75V20.3438L27.25 59H26.5L10 20.625V50.4688C10 52.5521 10.0521 53.8333 10.1562 54.3125C10.4271 55.3542 11.0104 56.2083 11.9062 56.875C12.8229 57.5208 14.25 57.8438 16.1875 57.8438V59H1.6875V57.8438H2.125C3.0625 57.8646 3.9375 57.7188 4.75 57.4062C5.5625 57.0729 6.17708 56.6354 6.59375 56.0938C7.01042 55.5521 7.33333 54.7917 7.5625 53.8125C7.60417 53.5833 7.625 52.5208 7.625 50.625V23.8125C7.625 21.6667 7.51042 20.3333 7.28125 19.8125C7.05208 19.2708 6.58333 18.8021 5.875 18.4062C5.16667 17.9896 4.21875 17.7812 3.03125 17.7812H1.6875V16.625H19L30.9062 44.5625ZM87.4688 46.9375H72.5L70.7188 51.0625C70.1354 52.4375 69.8438 53.5729 69.8438 54.4688C69.8438 55.6562 70.3229 56.5312 71.2812 57.0938C71.8438 57.4271 73.2292 57.6771 75.4375 57.8438V59H61.3438V57.8438C62.8646 57.6146 64.1146 56.9896 65.0938 55.9688C66.0729 54.9271 67.2812 52.7917 68.7188 49.5625L83.875 15.75H84.4688L99.75 50.5C101.208 53.7917 102.406 55.8646 103.344 56.7188C104.052 57.3646 105.052 57.7396 106.344 57.8438V59H85.8438V57.8438H86.6875C88.3333 57.8438 89.4896 57.6146 90.1562 57.1562C90.6146 56.8229 90.8438 56.3438 90.8438 55.7188C90.8438 55.3438 90.7812 54.9583 90.6562 54.5625C90.6146 54.375 90.3021 53.5938 89.7188 52.2188L87.4688 46.9375ZM86.4062 44.625L80.0938 30.0312L73.5938 44.625H86.4062ZM124.094 39.6875V51.5625C124.094 53.8542 124.229 55.3021 124.5 55.9062C124.792 56.4896 125.292 56.9583 126 57.3125C126.708 57.6667 128.031 57.8438 129.969 57.8438V59H108.281V57.8438C110.24 57.8438 111.562 57.6667 112.25 57.3125C112.958 56.9375 113.448 56.4583 113.719 55.875C114.01 55.2917 114.156 53.8542 114.156 51.5625V24.0625C114.156 21.7708 114.01 20.3333 113.719 19.75C113.448 19.1458 112.958 18.6667 112.25 18.3125C111.542 17.9583 110.219 17.7812 108.281 17.7812V16.625H127.969C133.094 16.625 136.844 16.9792 139.219 17.6875C141.594 18.3958 143.531 19.7083 145.031 21.625C146.531 23.5208 147.281 25.75 147.281 28.3125C147.281 31.4375 146.156 34.0208 143.906 36.0625C142.469 37.3542 140.458 38.3229 137.875 38.9688L148.062 53.3125C149.396 55.1667 150.344 56.3229 150.906 56.7812C151.76 57.4271 152.75 57.7812 153.875 57.8438V59H140.531L126.875 39.6875H124.094ZM124.094 18.9062V37.4688H125.875C128.771 37.4688 130.938 37.2083 132.375 36.6875C133.812 36.1458 134.938 35.1875 135.75 33.8125C136.583 32.4167 137 30.6042 137 28.375C137 25.1458 136.24 22.7604 134.719 21.2188C133.219 19.6771 130.792 18.9062 127.438 18.9062H124.094ZM191.469 16.625V28.0938H190.344C189.677 25.4479 188.938 23.5521 188.125 22.4062C187.312 21.2396 186.198 20.3125 184.781 19.625C183.99 19.25 182.604 19.0625 180.625 19.0625H177.469V51.75C177.469 53.9167 177.583 55.2708 177.812 55.8125C178.062 56.3542 178.531 56.8333 179.219 57.25C179.927 57.6458 180.885 57.8438 182.094 57.8438H183.5V59H161.312V57.8438H162.719C163.948 57.8438 164.938 57.625 165.688 57.1875C166.229 56.8958 166.656 56.3958 166.969 55.6875C167.198 55.1875 167.312 53.875 167.312 51.75V19.0625H164.25C161.396 19.0625 159.323 19.6667 158.031 20.875C156.219 22.5625 155.073 24.9688 154.594 28.0938H153.406V16.625H191.469ZM217.219 57.8438V59H195.062V57.8438H196.469C197.698 57.8438 198.688 57.625 199.438 57.1875C199.979 56.8958 200.396 56.3958 200.688 55.6875C200.917 55.1875 201.031 53.875 201.031 51.75V23.875C201.031 21.7083 200.917 20.3542 200.688 19.8125C200.458 19.2708 199.99 18.8021 199.281 18.4062C198.594 17.9896 197.656 17.7812 196.469 17.7812H195.062V16.625H217.219V17.7812H215.812C214.583 17.7812 213.594 18 212.844 18.4375C212.302 18.7292 211.875 19.2292 211.562 19.9375C211.333 20.4375 211.219 21.75 211.219 23.875V51.75C211.219 53.9167 211.333 55.2708 211.562 55.8125C211.812 56.3542 212.281 56.8333 212.969 57.25C213.677 57.6458 214.625 57.8438 215.812 57.8438H217.219ZM234.656 16.625L255.562 42.9062V24.6875C255.562 22.1458 255.198 20.4271 254.469 19.5312C253.469 18.3229 251.792 17.7396 249.438 17.7812V16.625H263.438V17.7812C261.646 18.0104 260.438 18.3125 259.812 18.6875C259.208 19.0417 258.729 19.6354 258.375 20.4688C258.042 21.2812 257.875 22.6875 257.875 24.6875V59.9688H256.812L228.156 24.6875V51.625C228.156 54.0625 228.708 55.7083 229.812 56.5625C230.938 57.4167 232.219 57.8438 233.656 57.8438H234.656V59H219.625V57.8438C221.958 57.8229 223.583 57.3438 224.5 56.4062C225.417 55.4688 225.875 53.875 225.875 51.625V21.7188L224.969 20.5938C224.073 19.4688 223.281 18.7292 222.594 18.375C221.906 18.0208 220.917 17.8229 219.625 17.7812V16.625H234.656ZM295.031 15.6562L295.375 29.7812H294.094C293.49 26.2396 292 23.3958 289.625 21.25C287.271 19.0833 284.719 18 281.969 18C279.844 18 278.156 18.5729 276.906 19.7188C275.677 20.8438 275.062 22.1458 275.062 23.625C275.062 24.5625 275.281 25.3958 275.719 26.125C276.323 27.1042 277.292 28.0729 278.625 29.0312C279.604 29.7188 281.865 30.9375 285.406 32.6875C290.365 35.125 293.708 37.4271 295.438 39.5938C297.146 41.7604 298 44.2396 298 47.0312C298 50.5729 296.615 53.625 293.844 56.1875C291.094 58.7292 287.594 60 283.344 60C282.01 60 280.75 59.8646 279.562 59.5938C278.375 59.3229 276.885 58.8125 275.094 58.0625C274.094 57.6458 273.271 57.4375 272.625 57.4375C272.083 57.4375 271.51 57.6458 270.906 58.0625C270.302 58.4792 269.812 59.1146 269.438 59.9688H268.281V43.9688H269.438C270.354 48.4688 272.115 51.9062 274.719 54.2812C277.344 56.6354 280.167 57.8125 283.188 57.8125C285.521 57.8125 287.375 57.1771 288.75 55.9062C290.146 54.6354 290.844 53.1562 290.844 51.4688C290.844 50.4688 290.573 49.5 290.031 48.5625C289.51 47.625 288.708 46.7396 287.625 45.9062C286.542 45.0521 284.625 43.9479 281.875 42.5938C278.021 40.6979 275.25 39.0833 273.562 37.75C271.875 36.4167 270.573 34.9271 269.656 33.2812C268.76 31.6354 268.312 29.8229 268.312 27.8438C268.312 24.4688 269.552 21.5938 272.031 19.2188C274.51 16.8438 277.635 15.6562 281.406 15.6562C282.781 15.6562 284.115 15.8229 285.406 16.1562C286.385 16.4062 287.573 16.875 288.969 17.5625C290.385 18.2292 291.375 18.5625 291.938 18.5625C292.479 18.5625 292.906 18.3958 293.219 18.0625C293.531 17.7292 293.823 16.9271 294.094 15.6562H295.031Z"/>
</mask>
<path d="M30.9062 44.5625L42.4062 16.625H59.6562V17.7812H58.2812C57.0312 17.7812 56.0312 18 55.2812 18.4375C54.7604 18.7292 54.3438 19.2188 54.0312 19.9062C53.8021 20.4062 53.6875 21.7083 53.6875 23.8125V51.75C53.6875 53.9167 53.8021 55.2708 54.0312 55.8125C54.2604 56.3542 54.7292 56.8333 55.4375 57.25C56.1458 57.6458 57.0938 57.8438 58.2812 57.8438H59.6562V59H37.5312V57.8438H38.9062C40.1562 57.8438 41.1562 57.625 41.9062 57.1875C42.4271 56.8958 42.8438 56.3958 43.1562 55.6875C43.3854 55.1875 43.5 53.875 43.5 51.75V20.3438L27.25 59H26.5L10 20.625V50.4688C10 52.5521 10.0521 53.8333 10.1562 54.3125C10.4271 55.3542 11.0104 56.2083 11.9062 56.875C12.8229 57.5208 14.25 57.8438 16.1875 57.8438V59H1.6875V57.8438H2.125C3.0625 57.8646 3.9375 57.7188 4.75 57.4062C5.5625 57.0729 6.17708 56.6354 6.59375 56.0938C7.01042 55.5521 7.33333 54.7917 7.5625 53.8125C7.60417 53.5833 7.625 52.5208 7.625 50.625V23.8125C7.625 21.6667 7.51042 20.3333 7.28125 19.8125C7.05208 19.2708 6.58333 18.8021 5.875 18.4062C5.16667 17.9896 4.21875 17.7812 3.03125 17.7812H1.6875V16.625H19L30.9062 44.5625ZM87.4688 46.9375H72.5L70.7188 51.0625C70.1354 52.4375 69.8438 53.5729 69.8438 54.4688C69.8438 55.6562 70.3229 56.5312 71.2812 57.0938C71.8438 57.4271 73.2292 57.6771 75.4375 57.8438V59H61.3438V57.8438C62.8646 57.6146 64.1146 56.9896 65.0938 55.9688C66.0729 54.9271 67.2812 52.7917 68.7188 49.5625L83.875 15.75H84.4688L99.75 50.5C101.208 53.7917 102.406 55.8646 103.344 56.7188C104.052 57.3646 105.052 57.7396 106.344 57.8438V59H85.8438V57.8438H86.6875C88.3333 57.8438 89.4896 57.6146 90.1562 57.1562C90.6146 56.8229 90.8438 56.3438 90.8438 55.7188C90.8438 55.3438 90.7812 54.9583 90.6562 54.5625C90.6146 54.375 90.3021 53.5938 89.7188 52.2188L87.4688 46.9375ZM86.4062 44.625L80.0938 30.0312L73.5938 44.625H86.4062ZM124.094 39.6875V51.5625C124.094 53.8542 124.229 55.3021 124.5 55.9062C124.792 56.4896 125.292 56.9583 126 57.3125C126.708 57.6667 128.031 57.8438 129.969 57.8438V59H108.281V57.8438C110.24 57.8438 111.562 57.6667 112.25 57.3125C112.958 56.9375 113.448 56.4583 113.719 55.875C114.01 55.2917 114.156 53.8542 114.156 51.5625V24.0625C114.156 21.7708 114.01 20.3333 113.719 19.75C113.448 19.1458 112.958 18.6667 112.25 18.3125C111.542 17.9583 110.219 17.7812 108.281 17.7812V16.625H127.969C133.094 16.625 136.844 16.9792 139.219 17.6875C141.594 18.3958 143.531 19.7083 145.031 21.625C146.531 23.5208 147.281 25.75 147.281 28.3125C147.281 31.4375 146.156 34.0208 143.906 36.0625C142.469 37.3542 140.458 38.3229 137.875 38.9688L148.062 53.3125C149.396 55.1667 150.344 56.3229 150.906 56.7812C151.76 57.4271 152.75 57.7812 153.875 57.8438V59H140.531L126.875 39.6875H124.094ZM124.094 18.9062V37.4688H125.875C128.771 37.4688 130.938 37.2083 132.375 36.6875C133.812 36.1458 134.938 35.1875 135.75 33.8125C136.583 32.4167 137 30.6042 137 28.375C137 25.1458 136.24 22.7604 134.719 21.2188C133.219 19.6771 130.792 18.9062 127.438 18.9062H124.094ZM191.469 16.625V28.0938H190.344C189.677 25.4479 188.938 23.5521 188.125 22.4062C187.312 21.2396 186.198 20.3125 184.781 19.625C183.99 19.25 182.604 19.0625 180.625 19.0625H177.469V51.75C177.469 53.9167 177.583 55.2708 177.812 55.8125C178.062 56.3542 178.531 56.8333 179.219 57.25C179.927 57.6458 180.885 57.8438 182.094 57.8438H183.5V59H161.312V57.8438H162.719C163.948 57.8438 164.938 57.625 165.688 57.1875C166.229 56.8958 166.656 56.3958 166.969 55.6875C167.198 55.1875 167.312 53.875 167.312 51.75V19.0625H164.25C161.396 19.0625 159.323 19.6667 158.031 20.875C156.219 22.5625 155.073 24.9688 154.594 28.0938H153.406V16.625H191.469ZM217.219 57.8438V59H195.062V57.8438H196.469C197.698 57.8438 198.688 57.625 199.438 57.1875C199.979 56.8958 200.396 56.3958 200.688 55.6875C200.917 55.1875 201.031 53.875 201.031 51.75V23.875C201.031 21.7083 200.917 20.3542 200.688 19.8125C200.458 19.2708 199.99 18.8021 199.281 18.4062C198.594 17.9896 197.656 17.7812 196.469 17.7812H195.062V16.625H217.219V17.7812H215.812C214.583 17.7812 213.594 18 212.844 18.4375C212.302 18.7292 211.875 19.2292 211.562 19.9375C211.333 20.4375 211.219 21.75 211.219 23.875V51.75C211.219 53.9167 211.333 55.2708 211.562 55.8125C211.812 56.3542 212.281 56.8333 212.969 57.25C213.677 57.6458 214.625 57.8438 215.812 57.8438H217.219ZM234.656 16.625L255.562 42.9062V24.6875C255.562 22.1458 255.198 20.4271 254.469 19.5312C253.469 18.3229 251.792 17.7396 249.438 17.7812V16.625H263.438V17.7812C261.646 18.0104 260.438 18.3125 259.812 18.6875C259.208 19.0417 258.729 19.6354 258.375 20.4688C258.042 21.2812 257.875 22.6875 257.875 24.6875V59.9688H256.812L228.156 24.6875V51.625C228.156 54.0625 228.708 55.7083 229.812 56.5625C230.938 57.4167 232.219 57.8438 233.656 57.8438H234.656V59H219.625V57.8438C221.958 57.8229 223.583 57.3438 224.5 56.4062C225.417 55.4688 225.875 53.875 225.875 51.625V21.7188L224.969 20.5938C224.073 19.4688 223.281 18.7292 222.594 18.375C221.906 18.0208 220.917 17.8229 219.625 17.7812V16.625H234.656ZM295.031 15.6562L295.375 29.7812H294.094C293.49 26.2396 292 23.3958 289.625 21.25C287.271 19.0833 284.719 18 281.969 18C279.844 18 278.156 18.5729 276.906 19.7188C275.677 20.8438 275.062 22.1458 275.062 23.625C275.062 24.5625 275.281 25.3958 275.719 26.125C276.323 27.1042 277.292 28.0729 278.625 29.0312C279.604 29.7188 281.865 30.9375 285.406 32.6875C290.365 35.125 293.708 37.4271 295.438 39.5938C297.146 41.7604 298 44.2396 298 47.0312C298 50.5729 296.615 53.625 293.844 56.1875C291.094 58.7292 287.594 60 283.344 60C282.01 60 280.75 59.8646 279.562 59.5938C278.375 59.3229 276.885 58.8125 275.094 58.0625C274.094 57.6458 273.271 57.4375 272.625 57.4375C272.083 57.4375 271.51 57.6458 270.906 58.0625C270.302 58.4792 269.812 59.1146 269.438 59.9688H268.281V43.9688H269.438C270.354 48.4688 272.115 51.9062 274.719 54.2812C277.344 56.6354 280.167 57.8125 283.188 57.8125C285.521 57.8125 287.375 57.1771 288.75 55.9062C290.146 54.6354 290.844 53.1562 290.844 51.4688C290.844 50.4688 290.573 49.5 290.031 48.5625C289.51 47.625 288.708 46.7396 287.625 45.9062C286.542 45.0521 284.625 43.9479 281.875 42.5938C278.021 40.6979 275.25 39.0833 273.562 37.75C271.875 36.4167 270.573 34.9271 269.656 33.2812C268.76 31.6354 268.312 29.8229 268.312 27.8438C268.312 24.4688 269.552 21.5938 272.031 19.2188C274.51 16.8438 277.635 15.6562 281.406 15.6562C282.781 15.6562 284.115 15.8229 285.406 16.1562C286.385 16.4062 287.573 16.875 288.969 17.5625C290.385 18.2292 291.375 18.5625 291.938 18.5625C292.479 18.5625 292.906 18.3958 293.219 18.0625C293.531 17.7292 293.823 16.9271 294.094 15.6562H295.031Z" fill="white"/>
<path d="M30.9062 44.5625L29.9863 44.9546L30.9223 47.1507L31.831 44.9431L30.9062 44.5625ZM42.4062 16.625V15.625H41.7365L41.4815 16.2444L42.4062 16.625ZM59.6562 16.625H60.6562V15.625H59.6562V16.625ZM59.6562 17.7812V18.7812H60.6562V17.7812H59.6562ZM55.2812 18.4375L55.7699 19.31L55.7775 19.3057L55.7851 19.3013L55.2812 18.4375ZM54.0312 19.9062L54.9403 20.3229L54.9416 20.3201L54.0312 19.9062ZM55.4375 57.25L54.9305 58.1119L54.94 58.1175L54.9497 58.1229L55.4375 57.25ZM59.6562 57.8438H60.6562V56.8438H59.6562V57.8438ZM59.6562 59V60H60.6562V59H59.6562ZM37.5312 59H36.5312V60H37.5312V59ZM37.5312 57.8438V56.8438H36.5312V57.8438H37.5312ZM41.9062 57.1875L41.4176 56.315L41.41 56.3193L41.4024 56.3237L41.9062 57.1875ZM43.1562 55.6875L42.2472 55.2708L42.2442 55.2773L42.2413 55.2839L43.1562 55.6875ZM43.5 20.3438H44.5L42.5781 19.9562L43.5 20.3438ZM27.25 59V60H27.9144L28.1719 59.3875L27.25 59ZM26.5 59L25.5813 59.395L25.8414 60H26.5V59ZM10 20.625L10.9187 20.23L9 20.625H10ZM10.1562 54.3125L9.17907 54.5249L9.18336 54.5446L9.18843 54.5641L10.1562 54.3125ZM11.9062 56.875L11.3092 57.6772L11.3197 57.685L11.3303 57.6925L11.9062 56.875ZM16.1875 57.8438H17.1875V56.8438H16.1875V57.8438ZM16.1875 59V60H17.1875V59H16.1875ZM1.6875 59H0.6875V60H1.6875V59ZM1.6875 57.8438V56.8438H0.6875V57.8438H1.6875ZM2.125 57.8438L2.14722 56.844L2.13611 56.8438H2.125V57.8438ZM4.75 57.4062L5.10898 58.3396L5.11931 58.3356L5.12956 58.3314L4.75 57.4062ZM7.5625 53.8125L8.53619 54.0404L8.54189 54.016L8.54637 53.9914L7.5625 53.8125ZM7.28125 19.8125L6.36028 20.2021L6.36306 20.2087L6.36593 20.2152L7.28125 19.8125ZM5.875 18.4062L5.36798 19.2682L5.37752 19.2738L5.38718 19.2792L5.875 18.4062ZM1.6875 17.7812H0.6875V18.7812H1.6875V17.7812ZM1.6875 16.625V15.625H0.6875V16.625H1.6875ZM19 16.625L19.9199 16.2329L19.6609 15.625H19V16.625ZM31.831 44.9431L43.331 17.0056L41.4815 16.2444L29.9815 44.1819L31.831 44.9431ZM42.4062 17.625H59.6562V15.625H42.4062V17.625ZM58.6562 16.625V17.7812H60.6562V16.625H58.6562ZM59.6562 16.7812H58.2812V18.7812H59.6562V16.7812ZM58.2812 16.7812C56.9275 16.7812 55.7331 17.0162 54.7774 17.5737L55.7851 19.3013C56.3294 18.9838 57.135 18.7812 58.2812 18.7812V16.7812ZM54.7926 17.565C54.0418 17.9855 53.498 18.6629 53.1209 19.4924L54.9416 20.3201C55.1895 19.7746 55.4791 19.4728 55.7699 19.31L54.7926 17.565ZM53.1222 19.4896C52.9285 19.9123 52.8346 20.5192 52.7773 21.1702C52.7164 21.8624 52.6875 22.7464 52.6875 23.8125H54.6875C54.6875 22.7744 54.7159 21.9553 54.7696 21.3455C54.8269 20.6943 54.9049 20.4002 54.9403 20.3229L53.1222 19.4896ZM52.6875 23.8125V51.75H54.6875V23.8125H52.6875ZM52.6875 51.75C52.6875 52.8471 52.7164 53.7584 52.777 54.4749C52.8346 55.1558 52.928 55.7714 53.1103 56.2021L54.9522 55.4229C54.9053 55.3119 54.8269 54.9797 54.7699 54.3063C54.7159 53.6687 54.6875 52.8196 54.6875 51.75H52.6875ZM53.1103 56.2021C53.4506 57.0065 54.1088 57.6286 54.9305 58.1119L55.9445 56.3881C55.3496 56.0381 55.0702 55.7018 54.9522 55.4229L53.1103 56.2021ZM54.9497 58.1229C55.8604 58.6319 56.9967 58.8438 58.2812 58.8438V56.8438C57.1908 56.8438 56.4312 56.6598 55.9253 56.3771L54.9497 58.1229ZM58.2812 58.8438H59.6562V56.8438H58.2812V58.8438ZM58.6562 57.8438V59H60.6562V57.8438H58.6562ZM59.6562 58H37.5312V60H59.6562V58ZM38.5312 59V57.8438H36.5312V59H38.5312ZM37.5312 58.8438H38.9062V56.8438H37.5312V58.8438ZM38.9062 58.8438C40.26 58.8438 41.4544 58.6088 42.4101 58.0513L41.4024 56.3237C40.8581 56.6412 40.0525 56.8438 38.9062 56.8438V58.8438ZM42.3949 58.06C43.1544 57.6347 43.6972 56.9388 44.0712 56.0911L42.2413 55.2839C41.9903 55.8529 41.6998 56.157 41.4176 56.315L42.3949 58.06ZM44.0653 56.1042C44.2594 55.6807 44.3531 55.0702 44.4103 54.4151C44.4711 53.7179 44.5 52.8263 44.5 51.75H42.5C42.5 52.7987 42.4716 53.6258 42.4179 54.2412C42.3605 54.8986 42.2823 55.1943 42.2472 55.2708L44.0653 56.1042ZM44.5 51.75V20.3438H42.5V51.75H44.5ZM42.5781 19.9562L26.3281 58.6125L28.1719 59.3875L44.4219 20.7313L42.5781 19.9562ZM27.25 58H26.5V60H27.25V58ZM27.4187 58.605L10.9187 20.23L9.08132 21.02L25.5813 59.395L27.4187 58.605ZM9 20.625V50.4688H11V20.625H9ZM9 50.4688C9 51.5167 9.01307 52.373 9.03989 53.0328C9.0657 53.6677 9.10613 54.1894 9.17907 54.5249L11.1334 54.1001C11.1022 53.9564 11.0645 53.5979 11.0382 52.9516C11.013 52.3302 11 51.5041 11 50.4688H9ZM9.18843 54.5641C9.51885 55.835 10.2381 56.8801 11.3092 57.6772L12.5033 56.0728C11.7827 55.5365 11.3353 54.8734 11.1241 54.0609L9.18843 54.5641ZM11.3303 57.6925C12.499 58.5159 14.1773 58.8438 16.1875 58.8438V56.8438C14.3227 56.8438 13.1468 56.5257 12.4822 56.0575L11.3303 57.6925ZM15.1875 57.8438V59H17.1875V57.8438H15.1875ZM16.1875 58H1.6875V60H16.1875V58ZM2.6875 59V57.8438H0.6875V59H2.6875ZM1.6875 58.8438H2.125V56.8438H1.6875V58.8438ZM2.10278 58.8435C3.16032 58.867 4.16583 58.7023 5.10898 58.3396L4.39102 56.4729C3.70917 56.7352 2.96468 56.8622 2.14722 56.844L2.10278 58.8435ZM5.12956 58.3314C6.0596 57.9499 6.83574 57.4193 7.38637 56.7035L5.80113 55.484C5.51843 55.8515 5.0654 56.196 4.37044 56.4811L5.12956 58.3314ZM7.38637 56.7035C7.92091 56.0086 8.28859 55.0983 8.53619 54.0404L6.58881 53.5846C6.37808 54.485 6.09992 55.0956 5.80113 55.484L7.38637 56.7035ZM8.54637 53.9914C8.58512 53.7783 8.5995 53.3574 8.60918 52.8634C8.61979 52.3224 8.625 51.5753 8.625 50.625H6.625C6.625 51.5706 6.61979 52.3026 6.60957 52.8241C6.60444 53.0854 6.59816 53.2882 6.59101 53.436C6.58285 53.6047 6.57554 53.6506 6.57863 53.6336L8.54637 53.9914ZM8.625 50.625V23.8125H6.625V50.625H8.625ZM8.625 23.8125C8.625 22.7258 8.59613 21.8243 8.53539 21.1175C8.47797 20.4494 8.3844 19.8367 8.19657 19.4098L6.36593 20.2152C6.40726 20.3092 6.48557 20.6235 6.54273 21.2887C6.59658 21.9153 6.625 22.7534 6.625 23.8125H8.625ZM8.20222 19.4229C7.85879 18.6111 7.19265 17.997 6.36282 17.5333L5.38718 19.2792C5.97402 19.6071 6.24537 19.9305 6.36028 20.2021L8.20222 19.4229ZM6.38202 17.5443C5.46641 17.0057 4.32242 16.7812 3.03125 16.7812V18.7812C4.11508 18.7812 4.86692 18.9734 5.36798 19.2682L6.38202 17.5443ZM3.03125 16.7812H1.6875V18.7812H3.03125V16.7812ZM2.6875 17.7812V16.625H0.6875V17.7812H2.6875ZM1.6875 17.625H19V15.625H1.6875V17.625ZM18.0801 17.0171L29.9863 44.9546L31.8262 44.1704L19.9199 16.2329L18.0801 17.0171ZM87.4688 46.9375L88.3887 46.5456L88.1297 45.9375H87.4688V46.9375ZM72.5 46.9375V45.9375H71.8426L71.5819 46.5411L72.5 46.9375ZM70.7188 51.0625L69.8007 50.6661L69.7982 50.672L70.7188 51.0625ZM71.2812 57.0938L71.7911 56.2335L71.7875 56.2313L71.2812 57.0938ZM75.4375 57.8438H76.4375V56.9164L75.5128 56.8466L75.4375 57.8438ZM75.4375 59V60H76.4375V59H75.4375ZM61.3438 59H60.3438V60H61.3438V59ZM61.3438 57.8438L61.1947 56.8549L60.3438 56.9831V57.8438H61.3438ZM65.0938 55.9688L65.8155 56.661L65.8224 56.6537L65.0938 55.9688ZM68.7188 49.5625L67.8062 49.1535L67.8052 49.1558L68.7188 49.5625ZM83.875 15.75V14.75H83.2274L82.9625 15.341L83.875 15.75ZM84.4688 15.75L85.3841 15.3475L85.1214 14.75H84.4688V15.75ZM99.75 50.5L98.8346 50.9025L98.8357 50.9051L99.75 50.5ZM103.344 56.7188L104.018 55.9798L104.017 55.9796L103.344 56.7188ZM106.344 57.8438H107.344V56.9211L106.424 56.847L106.344 57.8438ZM106.344 59V60H107.344V59H106.344ZM85.8438 59H84.8438V60H85.8438V59ZM85.8438 57.8438V56.8438H84.8438V57.8438H85.8438ZM90.1562 57.1562L90.7228 57.9803L90.7337 57.9728L90.7444 57.965L90.1562 57.1562ZM90.6562 54.5625L89.6801 54.7794L89.6895 54.822L89.7027 54.8636L90.6562 54.5625ZM89.7188 52.2188L90.6393 51.8282L90.6387 51.8268L89.7188 52.2188ZM86.4062 44.625V45.625H87.9283L87.3241 44.228L86.4062 44.625ZM80.0938 30.0312L81.0116 29.6342L80.1072 27.5433L79.1803 29.6244L80.0938 30.0312ZM73.5938 44.625L72.6803 44.2181L72.0536 45.625H73.5938V44.625ZM87.4688 45.9375H72.5V47.9375H87.4688V45.9375ZM71.5819 46.5411L69.8007 50.6661L71.6368 51.4589L73.4181 47.3339L71.5819 46.5411ZM69.7982 50.672C69.1928 52.0989 68.8438 53.3782 68.8438 54.4688H70.8438C70.8438 53.7676 71.078 52.7761 71.6393 51.453L69.7982 50.672ZM68.8438 54.4688C68.8438 55.9813 69.4861 57.1996 70.775 57.9562L71.7875 56.2313C71.1598 55.8629 70.8438 55.3312 70.8438 54.4688H68.8438ZM70.7714 57.954C71.2178 58.2185 71.8583 58.3879 72.5646 58.5154C73.3046 58.6489 74.2408 58.7563 75.3622 58.8409L75.5128 56.8466C74.4259 56.7646 73.5652 56.6636 72.9198 56.5471C72.2407 56.4246 71.9072 56.3023 71.7911 56.2335L70.7714 57.954ZM74.4375 57.8438V59H76.4375V57.8438H74.4375ZM75.4375 58H61.3438V60H75.4375V58ZM62.3438 59V57.8438H60.3438V59H62.3438ZM61.4928 58.8326C63.2117 58.5736 64.6698 57.8554 65.8154 56.661L64.3721 55.2765C63.5594 56.1238 62.5174 56.6556 61.1947 56.8549L61.4928 58.8326ZM65.8224 56.6537C66.9307 55.4746 68.197 53.1935 69.6323 49.9692L67.8052 49.1558C66.3655 52.3898 65.2152 54.3795 64.3651 55.2838L65.8224 56.6537ZM69.6313 49.9715L84.7875 16.159L82.9625 15.341L67.8062 49.1535L69.6313 49.9715ZM83.875 16.75H84.4688V14.75H83.875V16.75ZM83.5534 16.1525L98.8346 50.9025L100.665 50.0975L85.3841 15.3475L83.5534 16.1525ZM98.8357 50.9051C99.5729 52.569 100.253 53.9453 100.876 55.0238C101.49 56.0851 102.085 56.925 102.67 57.4579L104.017 55.9796C103.665 55.6584 103.193 55.0347 102.608 54.0231C102.033 53.0287 101.385 51.7226 100.664 50.0949L98.8357 50.9051ZM102.67 57.4577C103.591 58.2977 104.828 58.7248 106.263 58.8405L106.424 56.847C105.276 56.7544 104.513 56.4314 104.018 55.9798L102.67 57.4577ZM105.344 57.8438V59H107.344V57.8438H105.344ZM106.344 58H85.8438V60H106.344V58ZM86.8438 59V57.8438H84.8438V59H86.8438ZM85.8438 58.8438H86.6875V56.8438H85.8438V58.8438ZM86.6875 58.8438C88.3636 58.8438 89.7889 58.6224 90.7228 57.9803L89.5897 56.3322C89.1903 56.6068 88.303 56.8438 86.6875 56.8438V58.8438ZM90.7444 57.965C91.4909 57.4221 91.8438 56.6255 91.8438 55.7188H89.8438C89.8438 56.062 89.7383 56.2237 89.5681 56.3475L90.7444 57.965ZM91.8438 55.7188C91.8438 55.2313 91.7623 54.7443 91.6098 54.2614L89.7027 54.8636C89.8002 55.1724 89.8438 55.4562 89.8438 55.7188H91.8438ZM91.6324 54.3456C91.5898 54.1535 91.4622 53.8222 91.3191 53.4645C91.1591 53.0644 90.932 52.518 90.6393 51.8282L88.7982 52.6093C89.0889 53.2945 89.3097 53.8262 89.4621 54.2073C89.6316 54.6309 89.6811 54.784 89.6801 54.7794L91.6324 54.3456ZM90.6387 51.8268L88.3887 46.5456L86.5488 47.3294L88.7988 52.6107L90.6387 51.8268ZM87.3241 44.228L81.0116 29.6342L79.1759 30.4283L85.4884 45.022L87.3241 44.228ZM79.1803 29.6244L72.6803 44.2181L74.5072 45.0319L81.0072 30.4381L79.1803 29.6244ZM73.5938 45.625H86.4062V43.625H73.5938V45.625ZM124.094 39.6875V38.6875H123.094V39.6875H124.094ZM124.5 55.9062L123.587 56.3153L123.596 56.3346L123.606 56.3535L124.5 55.9062ZM129.969 57.8438H130.969V56.8438H129.969V57.8438ZM129.969 59V60H130.969V59H129.969ZM108.281 59H107.281V60H108.281V59ZM108.281 57.8438V56.8438H107.281V57.8438H108.281ZM112.25 57.3125L112.708 58.2015L112.718 58.1963L112.25 57.3125ZM113.719 55.875L112.824 55.4278L112.818 55.4407L112.812 55.4539L113.719 55.875ZM113.719 19.75L112.806 20.1591L112.815 20.1783L112.824 20.1972L113.719 19.75ZM108.281 17.7812H107.281V18.7812H108.281V17.7812ZM108.281 16.625V15.625H107.281V16.625H108.281ZM145.031 21.625L144.244 22.2413L144.247 22.2455L145.031 21.625ZM143.906 36.0625L144.575 36.8063L144.578 36.8031L143.906 36.0625ZM137.875 38.9688L137.632 37.9986L136.212 38.3538L137.06 39.5478L137.875 38.9688ZM148.062 53.3125L147.247 53.8916L147.251 53.8963L148.062 53.3125ZM150.906 56.7812L150.275 57.5565L150.289 57.568L150.303 57.5789L150.906 56.7812ZM153.875 57.8438H154.875V56.8978L153.93 56.8453L153.875 57.8438ZM153.875 59V60H154.875V59H153.875ZM140.531 59L139.715 59.5774L140.014 60H140.531V59ZM126.875 39.6875L127.691 39.1101L127.393 38.6875H126.875V39.6875ZM124.094 18.9062V17.9062H123.094V18.9062H124.094ZM124.094 37.4688H123.094V38.4688H124.094V37.4688ZM132.375 36.6875L132.716 37.6278L132.728 37.6233L132.375 36.6875ZM135.75 33.8125L134.891 33.2999L134.889 33.3038L135.75 33.8125ZM134.719 21.2188L134.002 21.9161L134.007 21.921L134.719 21.2188ZM123.094 39.6875V51.5625H125.094V39.6875H123.094ZM123.094 51.5625C123.094 52.7239 123.128 53.6931 123.2 54.4603C123.268 55.1946 123.379 55.8512 123.587 56.3153L125.413 55.4972C125.35 55.3572 125.258 54.9877 125.191 54.2741C125.127 53.5934 125.094 52.6927 125.094 51.5625H123.094ZM123.606 56.3535C124.013 57.1689 124.693 57.7772 125.553 58.2069L126.447 56.4181C125.89 56.1394 125.57 55.8103 125.394 55.459L123.606 56.3535ZM125.553 58.2069C126.051 58.4558 126.684 58.6075 127.391 58.7021C128.111 58.7985 128.974 58.8438 129.969 58.8438V56.8438C129.026 56.8438 128.259 56.8005 127.656 56.7198C127.04 56.6373 126.658 56.5233 126.447 56.4181L125.553 58.2069ZM128.969 57.8438V59H130.969V57.8438H128.969ZM129.969 58H108.281V60H129.969V58ZM109.281 59V57.8438H107.281V59H109.281ZM108.281 58.8438C109.286 58.8438 110.154 58.7986 110.875 58.7021C111.58 58.6077 112.214 58.4557 112.708 58.2015L111.792 56.4235C111.598 56.5235 111.227 56.6371 110.61 56.7198C110.007 56.8004 109.235 56.8438 108.281 56.8438V58.8438ZM112.718 58.1963C113.571 57.7447 114.242 57.1219 114.626 56.2961L112.812 55.4539C112.653 55.7947 112.346 56.1303 111.782 56.4287L112.718 58.1963ZM114.613 56.3222C114.847 55.8542 114.968 55.1888 115.042 54.4603C115.119 53.6945 115.156 52.725 115.156 51.5625H113.156C113.156 52.6917 113.12 53.5867 113.052 54.2584C112.98 54.9674 112.882 55.3125 112.824 55.4278L114.613 56.3222ZM115.156 51.5625V24.0625H113.156V51.5625H115.156ZM115.156 24.0625C115.156 22.9 115.119 21.9305 115.042 21.1647C114.968 20.4362 114.847 19.7708 114.613 19.3028L112.824 20.1972C112.882 20.3125 112.98 20.6576 113.052 21.3666C113.12 22.0383 113.156 22.9333 113.156 24.0625H115.156ZM114.631 19.3409C114.248 18.4868 113.57 17.8544 112.697 17.4181L111.803 19.2069C112.347 19.4789 112.647 19.8049 112.806 20.1591L114.631 19.3409ZM112.697 17.4181C112.199 17.1692 111.566 17.0175 110.859 16.9229C110.139 16.8265 109.276 16.7812 108.281 16.7812V18.7812C109.224 18.7812 109.991 18.8245 110.594 18.9052C111.21 18.9877 111.592 19.1017 111.803 19.2069L112.697 17.4181ZM109.281 17.7812V16.625H107.281V17.7812H109.281ZM108.281 17.625H127.969V15.625H108.281V17.625ZM127.969 17.625C133.077 17.625 136.705 17.9813 138.933 18.6458L139.505 16.7292C136.983 15.9771 133.11 15.625 127.969 15.625V17.625ZM138.933 18.6458C141.113 19.296 142.874 20.491 144.244 22.2413L145.819 21.0087C144.189 18.9256 142.074 17.4956 139.505 16.7292L138.933 18.6458ZM144.247 22.2455C145.599 23.9536 146.281 25.9607 146.281 28.3125H148.281C148.281 25.5393 147.464 23.088 145.815 21.0045L144.247 22.2455ZM146.281 28.3125C146.281 31.1646 145.269 33.4759 143.234 35.3219L144.578 36.8031C147.044 34.5658 148.281 31.7104 148.281 28.3125H146.281ZM143.238 35.3187C141.959 36.4679 140.114 37.3782 137.632 37.9986L138.118 39.9389C140.802 39.2677 142.979 38.2404 144.575 36.8063L143.238 35.3187ZM137.06 39.5478L147.247 53.8916L148.878 52.7334L138.69 38.3897L137.06 39.5478ZM147.251 53.8963C148.568 55.7278 149.591 56.9994 150.275 57.5565L151.538 56.006C151.097 55.6464 150.224 54.6055 148.874 52.7287L147.251 53.8963ZM150.303 57.5789C151.324 58.351 152.507 58.7693 153.82 58.8422L153.93 56.8453C152.993 56.7932 152.196 56.5031 151.509 55.9836L150.303 57.5789ZM152.875 57.8438V59H154.875V57.8438H152.875ZM153.875 58H140.531V60H153.875V58ZM141.348 58.4226L127.691 39.1101L126.059 40.2649L139.715 59.5774L141.348 58.4226ZM126.875 38.6875H124.094V40.6875H126.875V38.6875ZM123.094 18.9062V37.4688H125.094V18.9062H123.094ZM124.094 38.4688H125.875V36.4688H124.094V38.4688ZM125.875 38.4688C128.802 38.4688 131.111 38.2092 132.716 37.6277L132.034 35.7473C130.764 36.2075 128.739 36.4688 125.875 36.4688V38.4688ZM132.728 37.6233C134.387 36.9979 135.688 35.8839 136.611 34.3212L134.889 33.3038C134.187 34.4911 133.238 35.2937 132.022 35.7517L132.728 37.6233ZM136.609 34.3251C137.563 32.7271 138 30.7203 138 28.375H136C136 30.488 135.604 32.1063 134.891 33.2999L136.609 34.3251ZM138 28.375C138 25.0106 137.21 22.3198 135.431 20.5165L134.007 21.921C135.27 23.201 136 25.2811 136 28.375H138ZM135.435 20.5214C133.665 18.7013 130.914 17.9062 127.438 17.9062V19.9062C130.669 19.9062 132.773 20.6529 134.002 21.9161L135.435 20.5214ZM127.438 17.9062H124.094V19.9062H127.438V17.9062ZM191.469 16.625H192.469V15.625H191.469V16.625ZM191.469 28.0938V29.0938H192.469V28.0938H191.469ZM190.344 28.0938L189.374 28.3381L189.564 29.0938H190.344V28.0938ZM188.125 22.4062L187.304 22.9778L187.309 22.9847L188.125 22.4062ZM184.781 19.625L185.218 18.7253L185.209 18.7213L184.781 19.625ZM177.469 19.0625V18.0625H176.469V19.0625H177.469ZM177.812 55.8125L176.892 56.2021L176.898 56.217L176.905 56.2316L177.812 55.8125ZM179.219 57.25L178.7 58.1052L178.716 58.1143L178.731 58.1229L179.219 57.25ZM183.5 57.8438H184.5V56.8438H183.5V57.8438ZM183.5 59V60H184.5V59H183.5ZM161.312 59H160.312V60H161.312V59ZM161.312 57.8438V56.8438H160.312V57.8438H161.312ZM165.688 57.1875L165.213 56.307L165.198 56.3151L165.184 56.3237L165.688 57.1875ZM166.969 55.6875L166.06 55.2708L166.057 55.2773L166.054 55.2839L166.969 55.6875ZM167.312 19.0625H168.312V18.0625H167.312V19.0625ZM158.031 20.875L158.713 21.6069L158.714 21.6053L158.031 20.875ZM154.594 28.0938V29.0938H155.452L155.582 28.2453L154.594 28.0938ZM153.406 28.0938H152.406V29.0938H153.406V28.0938ZM153.406 16.625V15.625H152.406V16.625H153.406ZM190.469 16.625V28.0938H192.469V16.625H190.469ZM191.469 27.0938H190.344V29.0938H191.469V27.0938ZM191.313 27.8494C190.64 25.1749 189.864 23.1302 188.941 21.8278L187.309 22.9847C188.011 23.974 188.715 25.7209 189.374 28.3381L191.313 27.8494ZM188.946 21.8348C188.025 20.513 186.772 19.4793 185.218 18.7253L184.345 20.5247C185.624 21.1457 186.6 21.9662 187.304 22.9777L188.946 21.8348ZM185.209 18.7213C184.198 18.242 182.611 18.0625 180.625 18.0625V20.0625C182.597 20.0625 183.782 20.258 184.353 20.5287L185.209 18.7213ZM180.625 18.0625H177.469V20.0625H180.625V18.0625ZM176.469 19.0625V51.75H178.469V19.0625H176.469ZM176.469 51.75C176.469 52.8471 176.498 53.7584 176.558 54.4749C176.616 55.1558 176.709 55.7714 176.892 56.2021L178.733 55.4229C178.687 55.3119 178.608 54.9797 178.551 54.3063C178.497 53.6687 178.469 52.8196 178.469 51.75H176.469ZM176.905 56.2316C177.263 57.0072 177.9 57.6203 178.7 58.1052L179.737 56.3948C179.162 56.0463 178.862 55.7011 178.72 55.3934L176.905 56.2316ZM178.731 58.1229C179.644 58.6331 180.792 58.8438 182.094 58.8438V56.8438C180.979 56.8438 180.21 56.6586 179.707 56.3771L178.731 58.1229ZM182.094 58.8438H183.5V56.8438H182.094V58.8438ZM182.5 57.8438V59H184.5V57.8438H182.5ZM183.5 58H161.312V60H183.5V58ZM162.312 59V57.8438H160.312V59H162.312ZM161.312 58.8438H162.719V56.8438H161.312V58.8438ZM162.719 58.8438C164.055 58.8438 165.238 58.6075 166.191 58.0513L165.184 56.3237C164.637 56.6425 163.841 56.8438 162.719 56.8438V58.8438ZM166.162 58.068C166.945 57.6461 167.505 56.9495 167.884 56.0911L166.054 55.2839C165.808 55.8422 165.513 56.1456 165.213 56.307L166.162 58.068ZM167.878 56.1042C168.072 55.6807 168.166 55.0702 168.223 54.4151C168.284 53.7179 168.312 52.8263 168.312 51.75H166.312C166.312 52.7987 166.284 53.6258 166.23 54.2412C166.173 54.8986 166.095 55.1943 166.06 55.2708L167.878 56.1042ZM168.312 51.75V19.0625H166.312V51.75H168.312ZM167.312 18.0625H164.25V20.0625H167.312V18.0625ZM164.25 18.0625C161.29 18.0625 158.91 18.6833 157.348 20.1447L158.714 21.6053C159.736 20.6501 161.502 20.0625 164.25 20.0625V18.0625ZM157.35 20.1431C155.332 22.0221 154.109 24.6571 153.605 27.9422L155.582 28.2453C156.037 25.2804 157.106 23.1029 158.713 21.6069L157.35 20.1431ZM154.594 27.0938H153.406V29.0938H154.594V27.0938ZM154.406 28.0938V16.625H152.406V28.0938H154.406ZM153.406 17.625H191.469V15.625H153.406V17.625ZM217.219 57.8438H218.219V56.8438H217.219V57.8438ZM217.219 59V60H218.219V59H217.219ZM195.062 59H194.062V60H195.062V59ZM195.062 57.8438V56.8438H194.062V57.8438H195.062ZM199.438 57.1875L198.963 56.307L198.948 56.3151L198.934 56.3237L199.438 57.1875ZM200.688 55.6875L199.778 55.2708L199.77 55.2886L199.763 55.3068L200.688 55.6875ZM199.281 18.4062L198.763 19.2614L198.778 19.2706L198.793 19.2792L199.281 18.4062ZM195.062 17.7812H194.062V18.7812H195.062V17.7812ZM195.062 16.625V15.625H194.062V16.625H195.062ZM217.219 16.625H218.219V15.625H217.219V16.625ZM217.219 17.7812V18.7812H218.219V17.7812H217.219ZM212.844 18.4375L213.318 19.318L213.333 19.3099L213.348 19.3013L212.844 18.4375ZM211.562 19.9375L212.472 20.3542L212.475 20.3477L212.477 20.3411L211.562 19.9375ZM211.562 55.8125L210.642 56.2021L210.648 56.217L210.655 56.2316L211.562 55.8125ZM212.969 57.25L212.45 58.1052L212.466 58.1143L212.481 58.1229L212.969 57.25ZM216.219 57.8438V59H218.219V57.8438H216.219ZM217.219 58H195.062V60H217.219V58ZM196.062 59V57.8438H194.062V59H196.062ZM195.062 58.8438H196.469V56.8438H195.062V58.8438ZM196.469 58.8438C197.805 58.8438 198.988 58.6075 199.941 58.0513L198.934 56.3237C198.387 56.6425 197.591 56.8438 196.469 56.8438V58.8438ZM199.912 58.068C200.703 57.642 201.255 56.9364 201.612 56.0682L199.763 55.3068C199.537 55.8553 199.256 56.1496 198.963 56.307L199.912 58.068ZM201.597 56.1042C201.791 55.6807 201.884 55.0702 201.942 54.4151C202.002 53.7179 202.031 52.8263 202.031 51.75H200.031C200.031 52.7987 200.003 53.6258 199.949 54.2412C199.892 54.8986 199.814 55.1943 199.778 55.2708L201.597 56.1042ZM202.031 51.75V23.875H200.031V51.75H202.031ZM202.031 23.875C202.031 22.7779 202.002 21.8666 201.942 21.1501C201.884 20.4692 201.791 19.8536 201.608 19.4229L199.767 20.2021C199.813 20.3131 199.892 20.6453 199.949 21.3187C200.003 21.9563 200.031 22.8054 200.031 23.875H202.031ZM201.608 19.4229C201.265 18.6111 200.599 17.997 199.769 17.5333L198.793 19.2792C199.38 19.6071 199.652 19.9305 199.767 20.2021L201.608 19.4229ZM199.8 17.5511C198.898 17.0048 197.757 16.7812 196.469 16.7812V18.7812C197.555 18.7812 198.289 18.9743 198.763 19.2614L199.8 17.5511ZM196.469 16.7812H195.062V18.7812H196.469V16.7812ZM196.062 17.7812V16.625H194.062V17.7812H196.062ZM195.062 17.625H217.219V15.625H195.062V17.625ZM216.219 16.625V17.7812H218.219V16.625H216.219ZM217.219 16.7812H215.812V18.7812H217.219V16.7812ZM215.812 16.7812C214.476 16.7812 213.293 17.0175 212.34 17.5737L213.348 19.3013C213.894 18.9825 214.691 18.7812 215.812 18.7812V16.7812ZM212.37 17.557C211.586 17.9789 211.026 18.6755 210.648 19.5339L212.477 20.3411C212.724 19.7828 213.018 19.4794 213.318 19.318L212.37 17.557ZM210.653 19.5208C210.459 19.9443 210.366 20.5548 210.308 21.2099C210.248 21.9071 210.219 22.7987 210.219 23.875H212.219C212.219 22.8263 212.247 21.9992 212.301 21.3838C212.358 20.7264 212.436 20.4307 212.472 20.3542L210.653 19.5208ZM210.219 23.875V51.75H212.219V23.875H210.219ZM210.219 51.75C210.219 52.8471 210.248 53.7584 210.308 54.4749C210.366 55.1558 210.459 55.7714 210.642 56.2021L212.483 55.4229C212.437 55.3119 212.358 54.9797 212.301 54.3063C212.247 53.6687 212.219 52.8196 212.219 51.75H210.219ZM210.655 56.2316C211.013 57.0072 211.65 57.6203 212.45 58.1052L213.487 56.3948C212.912 56.0463 212.612 55.7011 212.47 55.3934L210.655 56.2316ZM212.481 58.1229C213.392 58.6319 214.528 58.8438 215.812 58.8438V56.8438C214.722 56.8438 213.962 56.6598 213.457 56.3771L212.481 58.1229ZM215.812 58.8438H217.219V56.8438H215.812V58.8438ZM234.656 16.625L235.439 16.0025L235.139 15.625H234.656V16.625ZM255.562 42.9062L254.78 43.5288L256.562 45.7697V42.9062H255.562ZM254.469 19.5312L255.244 18.9L255.239 18.8937L254.469 19.5312ZM249.438 17.7812H248.438V18.7991L249.455 18.7811L249.438 17.7812ZM249.438 16.625V15.625H248.438V16.625H249.438ZM263.438 16.625H264.438V15.625H263.438V16.625ZM263.438 17.7812L263.564 18.7732L264.438 18.6615V17.7812H263.438ZM259.812 18.6875L260.318 19.5502L260.327 19.545L259.812 18.6875ZM258.375 20.4688L257.455 20.0776L257.45 20.0892L258.375 20.4688ZM257.875 59.9688V60.9688H258.875V59.9688H257.875ZM256.812 59.9688L256.036 60.5992L256.336 60.9688H256.812V59.9688ZM228.156 24.6875L228.932 24.057L227.156 21.8702V24.6875H228.156ZM229.812 56.5625L229.201 57.3535L229.208 57.3589L229.812 56.5625ZM234.656 57.8438H235.656V56.8438H234.656V57.8438ZM234.656 59V60H235.656V59H234.656ZM219.625 59H218.625V60H219.625V59ZM219.625 57.8438L219.616 56.8438L218.625 56.8526V57.8438H219.625ZM225.875 21.7188H226.875V21.3661L226.654 21.0914L225.875 21.7188ZM224.969 20.5938L224.186 21.2167L224.19 21.2211L224.969 20.5938ZM219.625 17.7812H218.625V18.7495L219.593 18.7807L219.625 17.7812ZM219.625 16.625V15.625H218.625V16.625H219.625ZM233.874 17.2475L254.78 43.5288L256.345 42.2837L235.439 16.0025L233.874 17.2475ZM256.562 42.9062V24.6875H254.562V42.9062H256.562ZM256.562 24.6875C256.562 23.3749 256.469 22.2351 256.267 21.2847C256.068 20.3438 255.748 19.5186 255.244 18.9L253.693 20.1625C253.919 20.4397 254.146 20.9218 254.311 21.6997C254.474 22.468 254.562 23.4584 254.562 24.6875H256.562ZM255.239 18.8937C253.964 17.3525 251.922 16.7371 249.42 16.7814L249.455 18.7811C251.661 18.742 252.974 19.2933 253.698 20.1688L255.239 18.8937ZM250.438 17.7812V16.625H248.438V17.7812H250.438ZM249.438 17.625H263.438V15.625H249.438V17.625ZM262.438 16.625V17.7812H264.438V16.625H262.438ZM263.311 16.7893C261.527 17.0174 260.123 17.3349 259.298 17.83L260.327 19.545C260.752 19.2901 261.765 19.0034 263.564 18.7732L263.311 16.7893ZM259.307 17.8248C258.469 18.3156 257.868 19.1047 257.455 20.0776L259.295 20.8599C259.59 20.1661 259.947 19.7677 260.318 19.5502L259.307 17.8248ZM257.45 20.0892C257.035 21.0997 256.875 22.6817 256.875 24.6875H258.875C258.875 22.6933 259.048 21.4628 259.3 20.8483L257.45 20.0892ZM256.875 24.6875V59.9688H258.875V24.6875H256.875ZM257.875 58.9688H256.812V60.9688H257.875V58.9688ZM257.589 59.3383L228.932 24.057L227.38 25.318L256.036 60.5992L257.589 59.3383ZM227.156 24.6875V51.625H229.156V24.6875H227.156ZM227.156 51.625C227.156 54.1492 227.717 56.2061 229.201 57.3535L230.424 55.7715C229.699 55.2106 229.156 53.9758 229.156 51.625H227.156ZM229.208 57.3589C230.51 58.3477 232.005 58.8438 233.656 58.8438V56.8438C232.433 56.8438 231.365 56.4857 230.417 55.7661L229.208 57.3589ZM233.656 58.8438H234.656V56.8438H233.656V58.8438ZM233.656 57.8438V59H235.656V57.8438H233.656ZM234.656 58H219.625V60H234.656V58ZM220.625 59V57.8438H218.625V59H220.625ZM219.634 58.8437C222.043 58.8222 224.012 58.3359 225.215 57.1054L223.785 55.7071C223.155 56.3516 221.874 56.8236 219.616 56.8438L219.634 58.8437ZM225.215 57.1054C226.408 55.8855 226.875 53.9623 226.875 51.625H224.875C224.875 53.7877 224.426 55.052 223.785 55.7071L225.215 57.1054ZM226.875 51.625V21.7188H224.875V51.625H226.875ZM226.654 21.0914L225.748 19.9664L224.19 21.2211L225.096 22.3461L226.654 21.0914ZM225.751 19.9708C224.83 18.8142 223.931 17.9391 223.052 17.486L222.136 19.264C222.631 19.5192 223.316 20.1233 224.186 21.2167L225.751 19.9708ZM223.052 17.486C222.172 17.0329 221.01 16.8254 219.657 16.7818L219.593 18.7807C220.823 18.8204 221.64 19.0087 222.136 19.264L223.052 17.486ZM220.625 17.7812V16.625H218.625V17.7812H220.625ZM219.625 17.625H234.656V15.625H219.625V17.625ZM295.031 15.6562L296.031 15.6319L296.007 14.6562H295.031V15.6562ZM295.375 29.7812V30.7812H296.4L296.375 29.7569L295.375 29.7812ZM294.094 29.7812L293.108 29.9494L293.25 30.7812H294.094V29.7812ZM289.625 21.25L288.948 21.9858L288.955 21.992L289.625 21.25ZM276.906 19.7188L277.581 20.4564L277.582 20.4559L276.906 19.7188ZM275.719 26.125L274.861 26.6395L274.868 26.6501L275.719 26.125ZM278.625 29.0312L278.041 29.8433L278.05 29.8497L278.625 29.0312ZM285.406 32.6875L284.963 33.584L284.965 33.5849L285.406 32.6875ZM295.438 39.5938L296.223 38.9746L296.219 38.97L295.438 39.5938ZM293.844 56.1875L294.522 56.9219L294.523 56.9217L293.844 56.1875ZM275.094 58.0625L275.48 57.1401L275.478 57.1394L275.094 58.0625ZM269.438 59.9688V60.9688H270.091L270.353 60.3707L269.438 59.9688ZM268.281 59.9688H267.281V60.9688H268.281V59.9688ZM268.281 43.9688V42.9688H267.281V43.9688H268.281ZM269.438 43.9688L270.417 43.7691L270.254 42.9688H269.438V43.9688ZM274.719 54.2812L274.045 55.0201L274.051 55.0257L274.719 54.2812ZM288.75 55.9062L288.077 55.1668L288.071 55.1719L288.75 55.9062ZM290.031 48.5625L289.157 49.0481L289.161 49.0555L289.165 49.0628L290.031 48.5625ZM287.625 45.9062L287.006 46.6916L287.015 46.6989L287.625 45.9062ZM281.875 42.5938L282.317 41.6966L282.316 41.6964L281.875 42.5938ZM269.656 33.2812L268.778 33.7593L268.783 33.7678L269.656 33.2812ZM285.406 16.1562L285.156 17.1245L285.159 17.1252L285.406 16.1562ZM288.969 17.5625L288.527 18.4596L288.535 18.4635L288.543 18.4673L288.969 17.5625ZM294.094 15.6562V14.6562H293.284L293.116 15.4478L294.094 15.6562ZM294.032 15.6806L294.375 29.8056L296.375 29.7569L296.031 15.6319L294.032 15.6806ZM295.375 28.7812H294.094V30.7812H295.375V28.7812ZM295.08 29.6131C294.442 25.8788 292.857 22.8227 290.295 20.508L288.955 21.992C291.143 23.969 292.537 26.6004 293.108 29.9494L295.08 29.6131ZM290.302 20.5142C287.796 18.2073 285.01 17 281.969 17V19C284.427 19 286.746 19.9594 288.948 21.9858L290.302 20.5142ZM281.969 17C279.66 17 277.708 17.6269 276.231 18.9816L277.582 20.4559C278.604 19.519 280.028 19 281.969 19V17ZM276.231 18.9811C274.824 20.269 274.062 21.8282 274.062 23.625H276.062C276.062 22.4634 276.53 21.4185 277.581 20.4564L276.231 18.9811ZM274.062 23.625C274.062 24.7246 274.321 25.7393 274.861 26.6395L276.576 25.6105C276.241 25.0524 276.062 24.4004 276.062 23.625H274.062ZM274.868 26.6501C275.564 27.7787 276.643 28.8383 278.041 29.8433L279.209 28.2192C277.94 27.3076 277.082 26.4296 276.57 25.5999L274.868 26.6501ZM278.05 29.8497C279.104 30.5896 281.438 31.8422 284.963 33.584L285.849 31.791C282.291 30.0328 280.104 28.8479 279.2 28.2128L278.05 29.8497ZM284.965 33.5849C289.897 36.0094 293.071 38.232 294.656 40.2175L296.219 38.97C294.345 36.6221 290.832 34.2406 285.847 31.7901L284.965 33.5849ZM294.652 40.2129C296.22 42.2009 297 44.4614 297 47.0312H299C299 44.0178 298.072 41.3199 296.223 38.9746L294.652 40.2129ZM297 47.0312C297 50.2742 295.746 53.0662 293.165 55.4533L294.523 56.9217C297.483 54.1838 299 50.8716 299 47.0312H297ZM293.165 55.4531C290.625 57.8007 287.379 59 283.344 59V61C287.809 61 291.563 59.6576 294.522 56.9219L293.165 55.4531ZM283.344 59C282.078 59 280.893 58.8715 279.785 58.6188L279.34 60.5687C280.607 60.8577 281.943 61 283.344 61V59ZM279.785 58.6188C278.676 58.3659 277.246 57.8793 275.48 57.1401L274.708 58.9849C276.525 59.7457 278.074 60.2799 279.34 60.5687L279.785 58.6188ZM275.478 57.1394C274.428 56.7017 273.463 56.4375 272.625 56.4375V58.4375C273.079 58.4375 273.76 58.5899 274.709 58.9856L275.478 57.1394ZM272.625 56.4375C271.82 56.4375 271.052 56.7475 270.339 57.2393L271.474 58.8857C271.969 58.5442 272.347 58.4375 272.625 58.4375V56.4375ZM270.339 57.2393C269.545 57.7864 268.951 58.5882 268.522 59.5668L270.353 60.3707C270.674 59.641 271.059 59.1719 271.474 58.8857L270.339 57.2393ZM269.438 58.9688H268.281V60.9688H269.438V58.9688ZM269.281 59.9688V43.9688H267.281V59.9688H269.281ZM268.281 44.9688H269.438V42.9688H268.281V44.9688ZM268.458 44.1684C269.404 48.8132 271.243 52.4645 274.045 55.0201L275.393 53.5424C272.986 51.348 271.305 48.1243 270.417 43.7691L268.458 44.1684ZM274.051 55.0257C276.827 57.5152 279.88 58.8125 283.188 58.8125V56.8125C280.454 56.8125 277.861 55.7556 275.386 53.5368L274.051 55.0257ZM283.188 58.8125C285.708 58.8125 287.826 58.1216 289.429 56.6406L288.071 55.1719C286.924 56.2326 285.334 56.8125 283.188 56.8125V58.8125ZM289.423 56.6457C291 55.2103 291.844 53.4728 291.844 51.4688H289.844C289.844 52.8397 289.292 54.0605 288.077 55.1668L289.423 56.6457ZM291.844 51.4688C291.844 50.2787 291.519 49.1388 290.897 48.0622L289.165 49.0628C289.627 49.8612 289.844 50.6588 289.844 51.4688H291.844ZM290.905 48.0769C290.303 46.9921 289.398 46.0082 288.235 45.1136L287.015 46.6989C288.019 47.471 288.718 48.2579 289.157 49.0481L290.905 48.0769ZM288.244 45.121C287.072 44.1965 285.072 43.0536 282.317 41.6966L281.433 43.4909C284.178 44.8422 286.012 45.9076 287.006 46.6915L288.244 45.121ZM282.316 41.6964C278.476 39.8074 275.784 38.2305 274.182 36.9654L272.943 38.5346C274.716 39.9362 277.566 41.5884 281.434 43.4911L282.316 41.6964ZM274.182 36.9654C272.584 35.7022 271.374 34.3103 270.53 32.7947L268.783 33.7678C269.772 35.5439 271.166 37.1311 272.943 38.5346L274.182 36.9654ZM270.535 32.8032C269.723 31.3123 269.312 29.6656 269.312 27.8438H267.312C267.312 29.9802 267.798 31.9585 268.778 33.7593L270.535 32.8032ZM269.312 27.8438C269.312 24.7467 270.437 22.1309 272.723 19.9409L271.339 18.4966C268.667 21.0566 267.312 24.1908 267.312 27.8438H269.312ZM272.723 19.9409C274.997 17.7625 277.866 16.6562 281.406 16.6562V14.6562C277.405 14.6562 274.024 15.925 271.339 18.4966L272.723 19.9409ZM281.406 16.6562C282.7 16.6562 283.949 16.8129 285.156 17.1245L285.656 15.188C284.28 14.8329 282.863 14.6562 281.406 14.6562V16.6562ZM285.159 17.1252C286.045 17.3515 287.164 17.7882 288.527 18.4596L289.411 16.6654C287.982 15.9618 286.726 15.461 285.654 15.1873L285.159 17.1252ZM288.543 18.4673C289.271 18.8098 289.91 19.0769 290.454 19.2602C290.98 19.4372 291.491 19.5625 291.938 19.5625V17.5625C291.821 17.5625 291.557 17.5212 291.093 17.3648C290.647 17.2148 290.083 16.9819 289.395 16.6577L288.543 18.4673ZM291.938 19.5625C292.7 19.5625 293.412 19.3187 293.948 18.7464L292.489 17.3786C292.401 17.4729 292.258 17.5625 291.938 17.5625V19.5625ZM293.948 18.7464C294.246 18.4289 294.453 17.9897 294.612 17.5527C294.779 17.0919 294.931 16.5246 295.072 15.8647L293.116 15.4478C292.986 16.0587 292.856 16.5279 292.732 16.8692C292.67 17.039 292.614 17.165 292.566 17.2549C292.517 17.3479 292.488 17.3797 292.489 17.3786L293.948 18.7464ZM294.094 16.6562H295.031V14.6562H294.094V16.6562Z" fill="white" mask="url(#path-1-outside-1_79_17)"/>
<path d="M0 70H301M0 5H301" stroke="white" stroke-width="4"/>
</svg>
